<svg width="24" height="24" viewBox="0 0 24 24" fill="none" xmlns="http://www.w3.org/2000/svg">
<path d="M17.607 10.4944L12.6353 2.57739C12.5631 2.47615 12.4678 2.39361 12.3573 2.33666C12.2468 2.27971 12.1243 2.25 12 2.25C11.8757 2.25 11.7532 2.27971 11.6427 2.33666C11.5322 2.39361 11.4369 2.47615 11.3647 2.57739L6.3705 10.5319C5.67666 11.6511 5.29017 12.9334 5.25 14.2496C5.25 16.0398 5.96116 17.7567 7.22703 19.0226C8.4929 20.2885 10.2098 20.9996 12 20.9996C13.7902 20.9996 15.5071 20.2885 16.773 19.0226C18.0388 17.7567 18.75 16.0398 18.75 14.2496C18.7069 12.919 18.3125 11.6234 17.607 10.4944V10.4944ZM12 19.4996C10.6082 19.4979 9.27384 18.9442 8.28966 17.96C7.30548 16.9758 6.75179 15.6415 6.75 14.2496C6.78986 13.2008 7.1049 12.181 7.6635 11.2924L8.36475 10.1749L15.9202 17.7304C15.4295 18.2863 14.8263 18.7317 14.1504 19.0368C13.4745 19.342 12.7415 19.5 12 19.5004V19.4996Z" fill="#0073DE"/>
</svg>
