<svg width="24" height="24" viewBox="0 0 24 24" fill="none" xmlns="http://www.w3.org/2000/svg">
<path d="M11.9028 5.98047C11.3095 5.98047 10.7295 6.15642 10.2361 6.48606C9.74278 6.8157 9.35826 7.28424 9.13119 7.83242C8.90413 8.3806 8.84472 8.9838 8.96048 9.56574C9.07623 10.1477 9.36195 10.6822 9.78151 11.1018C10.2011 11.5213 10.7356 11.8071 11.3176 11.9228C11.8995 12.0386 12.5027 11.9792 13.0509 11.7521C13.5991 11.525 14.0676 11.1405 14.3972 10.6472C14.7269 10.1538 14.9028 9.57381 14.9028 8.98047C14.9019 8.1851 14.5856 7.42256 14.0232 6.86015C13.4607 6.29774 12.6982 5.98137 11.9028 5.98047V5.98047ZM11.9028 10.4805C11.6062 10.4805 11.3162 10.3925 11.0695 10.2277C10.8228 10.0629 10.6305 9.82858 10.517 9.55449C10.4035 9.2804 10.3738 8.9788 10.4317 8.68783C10.4895 8.39686 10.6324 8.12959 10.8422 7.91981C11.052 7.71003 11.3192 7.56717 11.6102 7.50929C11.9012 7.45141 12.2028 7.48112 12.4769 7.59465C12.7509 7.70818 12.9852 7.90044 13.15 8.14711C13.3149 8.39379 13.4028 8.6838 13.4028 8.98047C13.4024 9.37815 13.2442 9.75942 12.963 10.0406C12.6818 10.3218 12.3005 10.48 11.9028 10.4805V10.4805Z" fill="black"/>
<path d="M17.6676 3.21133C16.2423 1.78635 14.3396 0.939858 12.3269 0.835221C10.3141 0.730584 8.33391 1.37522 6.76849 2.64472C5.20307 3.91422 4.16338 5.71859 3.85009 7.70957C3.5368 9.70055 3.97212 11.737 5.07202 13.4259L10.7395 22.1265C10.8657 22.3201 11.0381 22.4792 11.2412 22.5893C11.4444 22.6994 11.6718 22.7571 11.9029 22.7571C12.1339 22.7571 12.3613 22.6994 12.5645 22.5893C12.7676 22.4792 12.9401 22.3201 13.0662 22.1265L18.7339 13.4259C19.7545 11.8592 20.2055 9.98931 20.0114 8.12962C19.8172 6.26993 18.9898 4.53348 17.6676 3.21133V3.21133ZM17.4771 12.6071L11.9029 21.1642L6.32865 12.6071C4.6224 9.98782 4.98835 6.48251 7.19879 4.27197C7.81653 3.65421 8.54991 3.16418 9.35704 2.82985C10.1642 2.49552 11.0292 2.32344 11.9029 2.32344C12.7765 2.32344 13.6416 2.49552 14.4487 2.82985C15.2559 3.16418 15.9892 3.65421 16.607 4.27197C18.8174 6.48251 19.1833 9.98782 17.4771 12.6071Z" fill="black"/>
</svg>
