<svg width="30" height="31" viewBox="0 0 30 31" fill="none" xmlns="http://www.w3.org/2000/svg">
<path d="M29.9999 1.51618L28.4838 2.57352e-05L16.3845 12.1003C16.2822 12.1992 16.2005 12.3174 16.1444 12.4481C16.0882 12.5789 16.0587 12.7195 16.0574 12.8617C16.0562 13.004 16.0833 13.1451 16.1372 13.2768C16.1911 13.4085 16.2706 13.5281 16.3712 13.6287C16.4718 13.7293 16.5915 13.8089 16.7231 13.8628C16.8548 13.9166 16.9959 13.9437 17.1382 13.9425C17.2805 13.9413 17.4211 13.9117 17.5518 13.8556C17.6825 13.7994 17.8008 13.7178 17.8996 13.6154L21.6016 9.91344C22.1251 10.6958 22.4316 11.6031 22.4899 12.5426C22.5481 13.4821 22.3561 14.4203 21.9332 15.2614C21.5104 16.1024 20.872 16.8162 20.0832 17.3299C19.2943 17.8436 18.3833 18.1388 17.4431 18.1853C16.9201 17.1055 16.1474 16.1658 15.1889 15.4442C14.2304 14.7225 13.1137 14.2396 11.9314 14.0355C11.7428 13.2517 11.7356 12.4353 11.9104 11.6484C12.0851 10.8615 12.4371 10.1248 12.9397 9.49455C13.4422 8.86429 14.082 8.35705 14.8102 8.01148C15.5385 7.66591 16.336 7.49112 17.1421 7.50044V5.35747C16.0573 5.35035 14.9841 5.58013 13.9974 6.03076C13.0107 6.48138 12.1342 7.14199 11.4293 7.96644C10.7243 8.79088 10.2078 9.75929 9.91589 10.804C9.62397 11.8488 9.56365 12.9446 9.73914 14.0151C8.64895 14.1626 7.60517 14.5506 6.68325 15.1509C6.33433 13.5862 6.34202 11.9631 6.70576 10.4018C7.0695 8.84051 7.77996 7.38111 8.78447 6.13177C9.78899 4.88243 11.0618 3.87518 12.5086 3.18469C13.9553 2.4942 15.539 2.13817 17.1421 2.143V2.57352e-05C15.1187 -0.00402615 13.1231 0.47044 11.3181 1.38469C9.51309 2.29895 7.94986 3.62708 6.75601 5.26067C5.56216 6.89426 4.77153 8.78701 4.44865 10.7844C4.12577 12.7818 4.27979 14.8273 4.89815 16.7538C4.2019 17.6003 3.70169 18.5905 3.43343 19.6533C2.26603 20.1016 1.29247 20.9445 0.681729 22.0357C0.0709914 23.1269 -0.138358 24.3976 0.0900214 25.6271C0.318401 26.8565 0.97009 27.9672 1.93196 28.7664C2.89384 29.5655 4.10517 30.0025 5.35568 30.0017H16.0706C17.4287 29.9978 18.7344 29.4775 19.723 28.5462C20.7115 27.615 21.3088 26.3426 21.3937 24.9871C23.9046 24.1007 26.0797 22.4591 27.6205 20.2875C29.1614 18.1158 29.9925 15.5206 29.9999 12.8579C30.0113 9.81618 28.9321 6.87114 26.958 4.55707L29.9999 1.51618ZM16.0706 27.8587H5.35568C4.56827 27.861 3.80754 27.5736 3.21834 27.0512C2.62913 26.5288 2.25262 25.808 2.1605 25.026C2.06837 24.244 2.26707 23.4555 2.71875 22.8105C3.17043 22.1655 3.84355 21.7092 4.60992 21.5284L5.31496 21.3601L5.42104 20.6422C5.60763 19.372 6.24492 18.2112 7.21652 17.3719C8.18812 16.5326 9.4292 16.0707 10.7131 16.0707C11.997 16.0707 13.2381 16.5326 14.2097 17.3719C15.1813 18.2112 15.8186 19.372 16.0052 20.6422L16.1113 21.3601L16.8163 21.5273C17.5837 21.7071 18.2581 22.1632 18.7107 22.8085C19.1634 23.4538 19.3626 24.2432 19.2704 25.026C19.1782 25.8088 18.801 26.5303 18.2108 27.0527C17.6206 27.5752 16.8588 27.8621 16.0706 27.8587V27.8587ZM27.8569 12.8579C27.851 15.0025 27.2038 17.0964 25.9986 18.8704C24.7934 20.6444 23.0853 22.0174 21.0937 22.8131C20.6897 21.7046 19.9282 20.7622 18.9293 20.1344C20.1324 19.8404 21.2439 19.2527 22.1642 18.424C23.0846 17.5952 23.7851 16.5512 24.2032 15.3854C24.6212 14.2196 24.7437 12.9683 24.5597 11.7436C24.3757 10.5188 23.891 9.35879 23.1488 8.36728L25.4322 6.08287C27.0061 7.98912 27.8639 10.3858 27.8569 12.8579V12.8579Z" fill="white"/>
</svg>
