<svg width="24" height="24" viewBox="0 0 24 24" fill="none" xmlns="http://www.w3.org/2000/svg">
<path d="M15.75 16.5C16.5784 16.5 17.25 15.8284 17.25 15C17.25 14.1716 16.5784 13.5 15.75 13.5C14.9216 13.5 14.25 14.1716 14.25 15C14.25 15.8284 14.9216 16.5 15.75 16.5Z" fill="black"/>
<path d="M10.5 10.5C11.3284 10.5 12 9.82843 12 9C12 8.17157 11.3284 7.5 10.5 7.5C9.67157 7.5 9 8.17157 9 9C9 9.82843 9.67157 10.5 10.5 10.5Z" fill="black"/>
<path d="M21.75 15C22.1642 15 22.5 14.6642 22.5 14.25C22.5 13.8358 22.1642 13.5 21.75 13.5C21.3358 13.5 21 13.8358 21 14.25C21 14.6642 21.3358 15 21.75 15Z" fill="black"/>
<path d="M19.875 22.5C19.3558 22.5 18.8483 22.3461 18.4166 22.0576C17.985 21.7692 17.6485 21.3592 17.4498 20.8796C17.2511 20.3999 17.1992 19.8721 17.3004 19.3629C17.4017 18.8537 17.6517 18.386 18.0188 18.0189C18.386 17.6517 18.8537 17.4017 19.3629 17.3005C19.8721 17.1992 20.3999 17.2512 20.8795 17.4498C21.3592 17.6485 21.7692 17.985 22.0576 18.4166C22.346 18.8483 22.5 19.3558 22.5 19.875C22.4992 20.571 22.2224 21.2382 21.7303 21.7303C21.2382 22.2224 20.571 22.4992 19.875 22.5V22.5ZM19.875 18.75C19.6525 18.75 19.435 18.816 19.25 18.9396C19.065 19.0632 18.9208 19.2389 18.8356 19.4445C18.7505 19.6501 18.7282 19.8763 18.7716 20.0945C18.815 20.3127 18.9222 20.5132 19.0795 20.6705C19.2368 20.8278 19.4373 20.935 19.6555 20.9784C19.8738 21.0218 20.1 20.9995 20.3055 20.9144C20.5111 20.8292 20.6868 20.685 20.8104 20.5C20.934 20.315 21 20.0975 21 19.875C20.9996 19.5768 20.881 19.2909 20.6701 19.08C20.4592 18.8691 20.1732 18.7504 19.875 18.75V18.75ZM10.5 22.5C9.93501 22.4997 9.38185 22.3381 8.9055 22.0343C7.88594 22.4933 6.74642 22.6148 5.65301 22.3809C4.55959 22.1471 3.56944 21.5701 2.82685 20.7342C2.08425 19.8983 1.62803 18.847 1.52468 17.7337C1.42132 16.6203 1.67622 15.503 2.25224 14.5447C2.82826 13.5863 3.69529 12.837 4.72697 12.4058C5.75865 11.9747 6.90105 11.8843 7.9877 12.1478C9.07434 12.4114 10.0484 13.0151 10.768 13.8709C11.4876 14.7267 11.915 15.79 11.988 16.9058C12.5618 17.2333 13.0111 17.7414 13.266 18.3509C13.5209 18.9604 13.5671 19.6371 13.3972 20.2756C13.2274 20.9141 12.8512 21.4785 12.3271 21.8808C11.8031 22.2832 11.1607 22.5009 10.5 22.5V22.5ZM9.087 20.229L9.49125 20.6003C9.65423 20.7517 9.84896 20.8648 10.0612 20.9313C10.2735 20.9978 10.4979 21.0161 10.7182 20.9849C10.9384 20.9536 11.1489 20.8735 11.3342 20.7505C11.5196 20.6275 11.6751 20.4646 11.7895 20.2739C11.9039 20.0831 11.9742 19.8691 11.9953 19.6477C12.0165 19.4262 11.9879 19.2029 11.9117 18.9939C11.8355 18.7849 11.7136 18.5956 11.5548 18.4397C11.3961 18.2838 11.2046 18.1654 10.9943 18.093L10.476 17.9108L10.4985 17.2755C10.5055 16.4478 10.239 15.641 9.74028 14.9804C9.24157 14.3198 8.53861 13.8425 7.74066 13.6226C6.94271 13.4026 6.09446 13.4524 5.32773 13.7642C4.561 14.076 3.91873 14.6324 3.50075 15.3468C3.08276 16.0612 2.91247 16.8937 3.01632 17.7148C3.12018 18.536 3.49238 19.2999 4.07507 19.8877C4.65776 20.4756 5.41831 20.8545 6.23853 20.9656C7.05874 21.0766 7.89268 20.9137 8.61075 20.502L9.087 20.229ZM18 12C16.807 11.9986 15.6632 11.5241 14.8196 10.6805C13.9759 9.83685 13.5014 8.69306 13.5 7.50002C13.5001 7.36651 13.5068 7.23309 13.5203 7.10027C13.0578 6.842 12.673 6.46465 12.4056 6.0074C12.1383 5.55015 11.9982 5.02968 12 4.50002C12.001 3.70467 12.3174 2.94219 12.8798 2.37979C13.4422 1.8174 14.2047 1.50101 15 1.50002C15.5297 1.49825 16.0501 1.63831 16.5074 1.90564C16.9646 2.17298 17.342 2.55784 17.6003 3.02027C17.736 3.00752 17.8688 3.00002 18 3.00002C19.1935 3.00002 20.3381 3.47412 21.182 4.31804C22.0259 5.16195 22.5 6.30654 22.5 7.50002C22.5 8.69349 22.0259 9.83808 21.182 10.682C20.3381 11.5259 19.1935 12 18 12ZM15 3.00002C14.6023 3.00041 14.221 3.15858 13.9398 3.4398C13.6586 3.72101 13.5004 4.10231 13.5 4.50002C13.5 4.8219 13.6046 5.13507 13.7981 5.39236C13.9915 5.64964 14.2633 5.8371 14.5725 5.92652L15.249 6.12902L15.0878 6.81677C14.9468 7.42246 14.9979 8.057 15.2339 8.63234C15.47 9.20769 15.8792 9.69532 16.4048 10.0276C16.9305 10.3599 17.5465 10.5203 18.1675 10.4866C18.7885 10.453 19.3835 10.2269 19.8702 9.83972C20.3569 9.45257 20.711 8.92356 20.8834 8.32607C21.0558 7.72858 21.038 7.09224 20.8325 6.50533C20.6269 5.91842 20.2438 5.41003 19.7362 5.0507C19.2287 4.69137 18.6219 4.49891 18 4.50002C17.7694 4.50267 17.5399 4.53186 17.316 4.58702L16.629 4.74752L16.4265 4.07252C16.3371 3.7633 16.1496 3.4915 15.8923 3.29807C15.6351 3.10463 15.3219 3.00003 15 3.00002ZM4.875 8.25002C4.20749 8.25002 3.55497 8.05208 2.99995 7.68123C2.44494 7.31038 2.01235 6.78327 1.75691 6.16657C1.50146 5.54987 1.43463 4.87127 1.56485 4.21659C1.69508 3.5619 2.01651 2.96053 2.48852 2.48853C2.96052 2.01653 3.56189 1.69509 4.21657 1.56487C4.87126 1.43464 5.54986 1.50148 6.16656 1.75692C6.78326 2.01237 7.31036 2.44495 7.68121 2.99997C8.05206 3.55498 8.25 4.2075 8.25 4.87502C8.24901 5.76982 7.89311 6.62769 7.26039 7.26041C6.62767 7.89313 5.7698 8.24902 4.875 8.25002V8.25002ZM4.875 3.00002C4.50416 3.00002 4.14165 3.10998 3.83331 3.31601C3.52497 3.52204 3.28464 3.81487 3.14273 4.15749C3.00081 4.5001 2.96368 4.8771 3.03603 5.24081C3.10838 5.60453 3.28695 5.93862 3.54918 6.20084C3.8114 6.46307 4.14549 6.64164 4.50921 6.71399C4.87292 6.78634 5.24992 6.74921 5.59253 6.60729C5.93514 6.46538 6.22798 6.22505 6.43401 5.91671C6.64003 5.60837 6.75 5.24586 6.75 4.87502C6.74941 4.37792 6.55167 3.90135 6.20017 3.54985C5.84867 3.19835 5.3721 3.00061 4.875 3.00002V3.00002Z" fill="black"/>
</svg>
