<svg width="24" height="24" viewBox="0 0 24 24" fill="none" xmlns="http://www.w3.org/2000/svg">
<path fill-rule="evenodd" clip-rule="evenodd" d="M2.237 16.563C2.079 16.7377 2 16.9333 2 17.15C2 17.4667 2.10833 17.725 2.325 17.925C2.54167 18.125 2.79167 18.2 3.075 18.15C3.925 17.9833 4.59167 17.725 5.075 17.375C5.55833 17.025 6.2 16.85 7 16.85C7.48333 16.85 7.89167 16.921 8.225 17.063C8.55833 17.2043 8.896 17.3623 9.238 17.537C9.57933 17.7123 9.96233 17.875 10.387 18.025C10.8123 18.175 11.35 18.25 12 18.25C12.65 18.25 13.1877 18.175 13.613 18.025C14.0377 17.875 14.4207 17.7123 14.762 17.537C15.104 17.3623 15.446 17.2043 15.788 17.063C16.1293 16.921 16.5333 16.85 17 16.85C17.8 16.85 18.4417 17.025 18.925 17.375C19.4083 17.725 20.075 17.9833 20.925 18.15C21.2083 18.2 21.4583 18.125 21.675 17.925C21.8917 17.725 22 17.4667 22 17.15C22 16.9167 21.921 16.7167 21.763 16.55C21.6043 16.3833 21.4083 16.2667 21.175 16.2C20.525 16.0333 19.9293 15.775 19.388 15.425C18.846 15.075 18.05 14.9 17 14.9C16.3833 14.9 15.8667 14.9707 15.45 15.112C15.0333 15.254 14.65 15.4127 14.3 15.588C13.95 15.7627 13.6 15.925 13.25 16.075C12.9 16.225 12.4833 16.3 12 16.3C11.5167 16.3 11.1 16.225 10.75 16.075C10.4 15.925 10.05 15.7627 9.7 15.588C9.35 15.4127 8.97067 15.254 8.562 15.112C8.154 14.9707 7.63333 14.9 7 14.9C5.95 14.9 5.15433 15.075 4.613 15.425C4.071 15.775 3.475 16.0333 2.825 16.2C2.59167 16.2667 2.39567 16.3877 2.237 16.563ZM2.237 12.112C2.079 12.2873 2 12.4833 2 12.7C2 13.0167 2.10833 13.275 2.325 13.475C2.54167 13.675 2.79167 13.75 3.075 13.7C3.925 13.5333 4.59167 13.275 5.075 12.925C5.55833 12.575 6.2 12.4 7 12.4C7.48333 12.4 7.89167 12.4707 8.225 12.612C8.55833 12.754 8.896 12.9127 9.238 13.088C9.57933 13.2627 9.96233 13.425 10.387 13.575C10.8123 13.725 11.35 13.8 12 13.8C12.65 13.8 13.1833 13.725 13.6 13.575C14.0167 13.425 14.396 13.2627 14.738 13.088C15.0793 12.9127 15.421 12.754 15.763 12.612C16.1043 12.4707 16.5167 12.4 17 12.4C17.8 12.4 18.4417 12.575 18.925 12.925C19.4083 13.275 20.075 13.5333 20.925 13.7C21.2083 13.75 21.4583 13.675 21.675 13.475C21.8917 13.275 22 13.0167 22 12.7C22 12.4667 21.921 12.2667 21.763 12.1C21.6043 11.9333 21.4083 11.8167 21.175 11.75C20.525 11.5833 19.9293 11.325 19.388 10.975C18.846 10.625 18.05 10.45 17 10.45C16.3833 10.45 15.8667 10.5207 15.45 10.662C15.0333 10.804 14.65 10.9627 14.3 11.138C13.95 11.3127 13.6 11.475 13.25 11.625C12.9 11.775 12.4833 11.85 12 11.85C11.5167 11.85 11.1 11.775 10.75 11.625C10.4 11.475 10.05 11.3127 9.7 11.138C9.35 10.9627 8.97067 10.804 8.562 10.662C8.154 10.5207 7.63333 10.45 7 10.45C5.95 10.45 5.15433 10.625 4.613 10.975C4.071 11.325 3.475 11.5833 2.825 11.75C2.59167 11.8167 2.39567 11.9373 2.237 12.112ZM2.237 7.688C2.079 7.51267 2 7.31667 2 7.1C2 6.78333 2.10833 6.525 2.325 6.325C2.54167 6.125 2.79167 6.05 3.075 6.1C3.925 6.26667 4.59167 6.525 5.075 6.875C5.55833 7.225 6.2 7.4 7 7.4C7.48333 7.4 7.89167 7.32933 8.225 7.188C8.55833 7.046 8.896 6.88733 9.238 6.712C9.57933 6.53733 9.96233 6.375 10.387 6.225C10.8123 6.075 11.35 6 12 6C12.65 6 13.1877 6.075 13.613 6.225C14.0377 6.375 14.4207 6.53733 14.762 6.712C15.104 6.88733 15.446 7.046 15.788 7.188C16.1293 7.32933 16.5333 7.4 17 7.4C17.8 7.4 18.4417 7.225 18.925 6.875C19.4083 6.525 20.075 6.26667 20.925 6.1C21.2083 6.05 21.4583 6.125 21.675 6.325C21.8917 6.525 22 6.78333 22 7.1C22 7.33333 21.921 7.53333 21.763 7.7C21.6043 7.86667 21.4083 7.98333 21.175 8.05C20.525 8.21667 19.9293 8.475 19.388 8.825C18.846 9.175 18.05 9.35 17 9.35C16.3833 9.35 15.8667 9.27933 15.45 9.138C15.0333 8.996 14.65 8.83767 14.3 8.663C13.95 8.48767 13.6 8.325 13.25 8.175C12.9 8.025 12.4833 7.95 12 7.95C11.5167 7.95 11.1 8.025 10.75 8.175C10.4 8.325 10.05 8.48767 9.7 8.663C9.35 8.83767 8.97067 8.996 8.562 9.138C8.154 9.27933 7.63333 9.35 7 9.35C5.95 9.35 5.15433 9.175 4.613 8.825C4.071 8.475 3.475 8.21667 2.825 8.05C2.59167 7.98333 2.39567 7.86267 2.237 7.688Z" fill="#0073DE"/>
</svg>
