<svg width="24" height="24" viewBox="0 0 24 24" fill="none" xmlns="http://www.w3.org/2000/svg">
<path d="M12.0002 1.71387C12.1707 1.71387 12.3342 1.7816 12.4548 1.90216C12.5753 2.02271 12.643 2.18623 12.643 2.35672V3.63901C12.643 3.80951 12.5753 3.97302 12.4548 4.09358C12.3342 4.21414 12.1707 4.28187 12.0002 4.28187C11.8297 4.28187 11.6662 4.21414 11.5456 4.09358C11.4251 3.97302 11.3573 3.80951 11.3573 3.63901V2.35672C11.3573 2.18623 11.4251 2.02271 11.5456 1.90216C11.6662 1.7816 11.8297 1.71387 12.0002 1.71387ZM17.143 11.9996C17.143 12.675 17.01 13.3437 16.7516 13.9677C16.4931 14.5916 16.1143 15.1586 15.6367 15.6361C15.1592 16.1137 14.5922 16.4925 13.9683 16.751C13.3443 17.0094 12.6756 17.1424 12.0002 17.1424C11.3248 17.1424 10.6561 17.0094 10.0321 16.751C9.40814 16.4925 8.8412 16.1137 8.36364 15.6361C7.88608 15.1586 7.50726 14.5916 7.24881 13.9677C6.99036 13.3437 6.85733 12.675 6.85733 11.9996C6.85733 10.6356 7.39917 9.32751 8.36364 8.36303C9.32811 7.39856 10.6362 6.85672 12.0002 6.85672C13.3642 6.85672 14.6723 7.39856 15.6367 8.36303C16.6012 9.32751 17.143 10.6356 17.143 11.9996ZM21.643 12.6424C21.8135 12.6424 21.9771 12.5747 22.0976 12.4541C22.2182 12.3336 22.2859 12.1701 22.2859 11.9996C22.2859 11.8291 22.2182 11.6656 22.0976 11.545C21.9771 11.4245 21.8135 11.3567 21.643 11.3567H20.3608C20.1903 11.3567 20.0268 11.4245 19.9062 11.545C19.7856 11.6656 19.7179 11.8291 19.7179 11.9996C19.7179 12.1701 19.7856 12.3336 19.9062 12.4541C20.0268 12.5747 20.1903 12.6424 20.3608 12.6424H21.643ZM12.0002 19.7173C12.1707 19.7173 12.3342 19.785 12.4548 19.9056C12.5753 20.0261 12.643 20.1897 12.643 20.3602V21.6424C12.643 21.8129 12.5753 21.9764 12.4548 22.097C12.3342 22.2176 12.1707 22.2853 12.0002 22.2853C11.8297 22.2853 11.6662 22.2176 11.5456 22.097C11.4251 21.9764 11.3573 21.8129 11.3573 21.6424V20.3602C11.3573 20.1897 11.4251 20.0261 11.5456 19.9056C11.6662 19.785 11.8297 19.7173 12.0002 19.7173ZM3.64305 12.6424C3.81354 12.6424 3.97706 12.5747 4.09762 12.4541C4.21817 12.3336 4.2859 12.1701 4.2859 11.9996C4.2859 11.8291 4.21817 11.6656 4.09762 11.545C3.97706 11.4245 3.81354 11.3567 3.64305 11.3567H2.35819C2.18769 11.3567 2.02418 11.4245 1.90362 11.545C1.78306 11.6656 1.71533 11.8291 1.71533 11.9996C1.71533 12.1701 1.78306 12.3336 1.90362 12.4541C2.02418 12.5747 2.18769 12.6424 2.35819 12.6424H3.64305ZM4.47447 4.47301C4.59501 4.35262 4.7584 4.285 4.92876 4.285C5.09912 4.285 5.26251 4.35262 5.38305 4.47301L6.66876 5.75872C6.78232 5.88059 6.84413 6.04177 6.8412 6.20832C6.83826 6.37486 6.77079 6.53376 6.65301 6.65154C6.53523 6.76933 6.37632 6.83679 6.20978 6.83973C6.04324 6.84267 5.88205 6.78085 5.76019 6.6673L4.47447 5.38158C4.35409 5.26105 4.28647 5.09765 4.28647 4.9273C4.28647 4.75694 4.35409 4.59355 4.47447 4.47301ZM5.38305 19.5244C5.26118 19.638 5.1 19.6998 4.93346 19.6969C4.76691 19.6939 4.60801 19.6265 4.49023 19.5087C4.37245 19.3909 4.30498 19.232 4.30204 19.0655C4.2991 18.8989 4.36092 18.7377 4.47447 18.6159L5.76019 17.3302C5.88205 17.2166 6.04324 17.1548 6.20978 17.1577C6.37632 17.1607 6.53523 17.2281 6.65301 17.3459C6.77079 17.4637 6.83826 17.6226 6.8412 17.7891C6.84413 17.9557 6.78232 18.1169 6.66876 18.2387L5.38305 19.5244ZM19.5259 4.47301C19.4054 4.35262 19.242 4.285 19.0716 4.285C18.9013 4.285 18.7379 4.35262 18.6173 4.47301L17.3316 5.75872C17.2685 5.81758 17.2178 5.88855 17.1827 5.96741C17.1475 6.04626 17.1286 6.13139 17.1271 6.21771C17.1256 6.30402 17.1415 6.38976 17.1738 6.46981C17.2061 6.54986 17.2543 6.62257 17.3153 6.68361C17.3763 6.74466 17.4491 6.79278 17.5291 6.82512C17.6092 6.85745 17.6949 6.87333 17.7812 6.8718C17.8675 6.87028 17.9527 6.85139 18.0315 6.81625C18.1104 6.78112 18.1813 6.73046 18.2402 6.6673L19.5259 5.38158C19.6463 5.26105 19.7139 5.09765 19.7139 4.9273C19.7139 4.75694 19.6463 4.59355 19.5259 4.47301ZM18.6173 19.5253C18.7392 19.6389 18.9004 19.7007 19.0669 19.6977C19.2335 19.6948 19.3924 19.6273 19.5102 19.5095C19.6279 19.3918 19.6954 19.2329 19.6983 19.0663C19.7013 18.8998 19.6395 18.7386 19.5259 18.6167L18.2402 17.331C18.1183 17.2175 17.9571 17.1556 17.7906 17.1586C17.6241 17.1615 17.4652 17.229 17.3474 17.3468C17.2296 17.4645 17.1621 17.6234 17.1592 17.79C17.1562 17.9565 17.2181 18.1177 17.3316 18.2396L18.6173 19.5253Z" fill="white"/>
<path d="M17.6789 6.11852L17.6725 6.12453C17.6584 6.13761 17.6472 6.15338 17.6394 6.1709C17.6316 6.18843 17.6274 6.20734 17.627 6.22653C17.6267 6.24571 17.6302 6.26476 17.6374 6.28255C17.6446 6.30034 17.6553 6.31649 17.6689 6.33006C17.6824 6.34363 17.6986 6.35432 17.7164 6.36151C17.7342 6.36869 17.7532 6.37222 17.7724 6.37188C17.7916 6.37154 17.8105 6.36734 17.828 6.35954C17.8455 6.35173 17.8613 6.34047 17.8744 6.32643L17.8804 6.31998L17.8866 6.31374L19.1721 5.02825C19.1989 5.00146 19.2139 4.96515 19.2139 4.9273C19.2139 4.88951 19.1989 4.85327 19.1723 4.8265C19.1455 4.79993 19.1093 4.785 19.0716 4.785C19.0339 4.785 18.9977 4.79995 18.9709 4.82656L17.6789 6.11852ZM17.6789 6.11852L17.6852 6.11228L18.9707 4.82678L17.6789 6.11852ZM12.0002 2.21387C12.0381 2.21387 12.0744 2.22892 12.1012 2.25571C12.128 2.2825 12.143 2.31884 12.143 2.35672V3.63901C12.143 3.6769 12.128 3.71323 12.1012 3.74003C12.0744 3.76682 12.0381 3.78187 12.0002 3.78187C11.9623 3.78187 11.926 3.76682 11.8992 3.74003C11.8724 3.71324 11.8573 3.6769 11.8573 3.63901V2.35672C11.8573 2.31884 11.8724 2.2825 11.8992 2.25571C11.926 2.22892 11.9623 2.21387 12.0002 2.21387ZM16.643 11.9996C16.643 12.6093 16.523 13.213 16.2896 13.7763C16.0563 14.3396 15.7143 14.8514 15.2832 15.2826C14.8521 15.7137 14.3402 16.0557 13.7769 16.289C13.2136 16.5223 12.6099 16.6424 12.0002 16.6424C11.3905 16.6424 10.7867 16.5223 10.2234 16.289C9.66015 16.0557 9.14832 15.7137 8.71719 15.2826C8.28606 14.8514 7.94407 14.3396 7.71075 13.7763C7.47742 13.213 7.35733 12.6093 7.35733 11.9996C7.35733 10.7682 7.84649 9.58729 8.71719 8.71659C9.5879 7.84588 10.7688 7.35672 12.0002 7.35672C13.2316 7.35672 14.4125 7.84588 15.2832 8.71659C16.1539 9.58729 16.643 10.7682 16.643 11.9996ZM21.7441 12.1006C21.7173 12.1274 21.6809 12.1424 21.643 12.1424H20.3608C20.3229 12.1424 20.2865 12.1274 20.2597 12.1006C20.233 12.0738 20.2179 12.0375 20.2179 11.9996C20.2179 11.9617 20.233 11.9254 20.2597 11.8986C20.2865 11.8718 20.3229 11.8567 20.3608 11.8567H21.643C21.6809 11.8567 21.7173 11.8718 21.7441 11.8986C21.7709 11.9254 21.7859 11.9617 21.7859 11.9996C21.7859 12.0375 21.7709 12.0738 21.7441 12.1006ZM12.0002 20.2173C12.0381 20.2173 12.0744 20.2323 12.1012 20.2591C12.128 20.2859 12.143 20.3223 12.143 20.3602V21.6424C12.143 21.6803 12.128 21.7167 12.1012 21.7435C12.0744 21.7702 12.0381 21.7853 12.0002 21.7853C11.9623 21.7853 11.926 21.7702 11.8992 21.7435C11.8724 21.7167 11.8573 21.6803 11.8573 21.6424V20.3602C11.8573 20.3223 11.8724 20.2859 11.8992 20.2591C11.926 20.2323 11.9623 20.2173 12.0002 20.2173ZM3.74406 12.1006C3.71727 12.1274 3.68093 12.1424 3.64305 12.1424H2.35819C2.3203 12.1424 2.28397 12.1274 2.25717 12.1006C2.23038 12.0738 2.21533 12.0375 2.21533 11.9996C2.21533 11.9617 2.23038 11.9254 2.25717 11.8986C2.28397 11.8718 2.3203 11.8567 2.35819 11.8567H3.64305C3.68093 11.8567 3.71727 11.8718 3.74406 11.8986C3.77085 11.9254 3.7859 11.9617 3.7859 11.9996C3.7859 12.0375 3.77085 12.0738 3.74406 12.1006ZM4.82803 4.82656C4.85479 4.79995 4.89101 4.785 4.92876 4.785C4.96657 4.785 5.00283 4.79999 5.02961 4.82668C5.02964 4.82671 5.02968 4.82675 5.02971 4.82678L6.30673 6.1038C6.32955 6.13032 6.34189 6.16437 6.34127 6.19949C6.34062 6.23651 6.32563 6.27182 6.29945 6.29799C6.27328 6.32416 6.23797 6.33916 6.20096 6.33981C6.16584 6.34043 6.13179 6.32809 6.10526 6.30526L4.82825 5.02825C4.82821 5.02821 4.82818 5.02818 4.82814 5.02814C4.80146 5.00137 4.78647 4.9651 4.78647 4.9273C4.78647 4.88954 4.80141 4.85333 4.82803 4.82656ZM6.30673 17.8936L5.03798 19.1624C5.01145 19.1852 4.9774 19.1976 4.94228 19.197C4.90527 19.1963 4.86995 19.1813 4.84378 19.1551C4.81761 19.129 4.80261 19.0936 4.80196 19.0566C4.80134 19.0215 4.81368 18.9875 4.8365 18.9609L6.10526 17.6922C6.13179 17.6694 6.16584 17.657 6.20096 17.6576C6.23797 17.6583 6.27328 17.6733 6.29945 17.6995C6.32563 17.7256 6.34062 17.7609 6.34127 17.798C6.34189 17.8331 6.32956 17.8671 6.30673 17.8936ZM19.0581 19.1978C19.023 19.1984 18.9889 19.1861 18.9624 19.1633L17.6936 17.8945C17.6708 17.868 17.6585 17.8339 17.6591 17.7988C17.6598 17.7618 17.6748 17.7265 17.7009 17.7003C17.7271 17.6741 17.7624 17.6592 17.7994 17.6585C17.8345 17.6579 17.8686 17.6702 17.8951 17.693L19.1639 18.9618C19.1867 18.9883 19.199 19.0224 19.1984 19.0575C19.1978 19.0945 19.1828 19.1298 19.1566 19.156C19.1304 19.1822 19.0951 19.1972 19.0581 19.1978Z" stroke="#0073DE" stroke-opacity="0.5"/>
</svg>
