<svg width="24" height="24" viewBox="0 0 24 24" fill="none" xmlns="http://www.w3.org/2000/svg">
<path d="M12 6.53955C15.015 6.53955 17.46 8.98455 17.46 11.9995C17.46 12.341 17.428 12.675 17.368 12.9995H21.375C21.5408 12.9995 21.6997 13.0654 21.8169 13.1826C21.9342 13.2998 22 13.4588 22 13.6245C22 13.7903 21.9342 13.9493 21.8169 14.0665C21.6997 14.1837 21.5408 14.2495 21.375 14.2495H2.625C2.45924 14.2495 2.30027 14.1837 2.18306 14.0665C2.06585 13.9493 2 13.7903 2 13.6245C2 13.4588 2.06585 13.2998 2.18306 13.1826C2.30027 13.0654 2.45924 12.9995 2.625 12.9995H6.6315C6.57052 12.6697 6.5399 12.335 6.54 11.9995C6.54 8.98455 8.985 6.53955 12 6.53955ZM5.7525 4.90155L5.8035 4.94705L6.8775 6.02105C6.99056 6.13407 7.05601 6.28612 7.0604 6.44592C7.06478 6.60572 7.00777 6.76113 6.90108 6.88018C6.79438 6.99924 6.64613 7.07288 6.4868 7.08597C6.32747 7.09905 6.16919 7.05059 6.0445 6.95055L5.9935 6.90505L4.9195 5.83105C4.80644 5.71803 4.74099 5.56598 4.7366 5.40617C4.73222 5.24637 4.78923 5.09096 4.89592 4.97191C5.00262 4.85286 5.15087 4.77922 5.3102 4.76613C5.46953 4.75304 5.62781 4.8015 5.7525 4.90155ZM19.072 4.94705C19.1808 5.05592 19.2457 5.20113 19.2541 5.35484C19.2625 5.50856 19.2138 5.65997 19.1175 5.78005L19.072 5.83105L17.998 6.90505C17.885 7.01811 17.7329 7.08356 17.5731 7.08795C17.4133 7.09233 17.2579 7.03531 17.1389 6.92862C17.0198 6.82193 16.9462 6.67368 16.9331 6.51435C16.92 6.35502 16.9685 6.19674 17.0685 6.07205L17.114 6.02105L18.188 4.94705C18.246 4.88899 18.3149 4.84294 18.3908 4.81152C18.4666 4.7801 18.5479 4.76393 18.63 4.76393C18.7121 4.76393 18.7934 4.7801 18.8692 4.81152C18.9451 4.84294 19.014 4.88899 19.072 4.94705ZM12 1.99805C12.324 1.99805 12.59 2.24405 12.622 2.55905L12.625 2.62305V4.14205C12.6244 4.30187 12.5625 4.45537 12.4522 4.571C12.3419 4.68663 12.1914 4.7556 12.0318 4.76373C11.8722 4.77187 11.7155 4.71854 11.594 4.61472C11.4725 4.5109 11.3954 4.36448 11.3785 4.20555L11.375 4.14205V2.62305C11.375 2.27805 11.655 1.99805 12 1.99805ZM10.625 18.9995C10.5429 18.9995 10.4617 19.0157 10.3858 19.0471C10.31 19.0785 10.2411 19.1246 10.1831 19.1826C10.125 19.2406 10.079 19.3095 10.0476 19.3854C10.0162 19.4612 10 19.5425 10 19.6245C10 19.7066 10.0162 19.7879 10.0476 19.8637C10.079 19.9396 10.125 20.0085 10.1831 20.0665C10.2411 20.1245 10.31 20.1706 10.3858 20.202C10.4617 20.2334 10.5429 20.2495 10.625 20.2495H13.375C13.5408 20.2495 13.6997 20.1837 13.8169 20.0665C13.9342 19.9493 14 19.7903 14 19.6245C14 19.4588 13.9342 19.2998 13.8169 19.1826C13.6997 19.0654 13.5408 18.9995 13.375 18.9995H10.625ZM6 16.6245C6 16.2795 6.28 15.9995 6.625 15.9995H17.375C17.5408 15.9995 17.6997 16.0654 17.8169 16.1826C17.9342 16.2998 18 16.4588 18 16.6245C18 16.7903 17.9342 16.9493 17.8169 17.0665C17.6997 17.1837 17.5408 17.2495 17.375 17.2495H6.625C6.28 17.2495 6 16.9695 6 16.6245Z" fill="white"/>
<path d="M16.8763 12.9086L16.7671 13.4995H17.368H21.375C21.4082 13.4995 21.4399 13.5127 21.4634 13.5362C21.4868 13.5596 21.5 13.5914 21.5 13.6245C21.5 13.6577 21.4868 13.6895 21.4634 13.7129C21.4399 13.7364 21.4082 13.7495 21.375 13.7495H2.625C2.59185 13.7495 2.56005 13.7364 2.53661 13.7129C2.51317 13.6895 2.5 13.6577 2.5 13.6245C2.5 13.5914 2.51317 13.5596 2.53661 13.5362C2.56005 13.5127 2.59185 13.4995 2.625 13.4995H6.6315H7.23241L7.12317 12.9087C7.06774 12.6088 7.0399 12.3046 7.04 11.9997V11.9995C7.04 9.26069 9.26114 7.03955 12 7.03955C14.7389 7.03955 16.96 9.26069 16.96 11.9995C16.96 12.3097 16.9309 12.6133 16.8763 12.9086ZM6.52395 6.3746L6.52401 6.37466C6.54662 6.39727 6.55971 6.42768 6.56059 6.45964C6.56146 6.4916 6.55006 6.52268 6.52872 6.54649C6.50738 6.5703 6.47773 6.58503 6.44587 6.58765C6.4167 6.59004 6.3877 6.58212 6.36387 6.56542L6.33699 6.54143L5.27305 5.47749L5.27299 5.47743C5.25038 5.45483 5.23729 5.42442 5.23641 5.39246C5.23554 5.3605 5.24694 5.32942 5.26828 5.30561C5.28962 5.2818 5.31927 5.26707 5.35113 5.26445C5.3803 5.26205 5.4093 5.26997 5.43313 5.28668L5.46001 5.31067L6.52395 6.3746ZM17.6444 6.55149L17.6444 6.55155C17.6218 6.57417 17.5914 6.58726 17.5594 6.58813C17.5275 6.58901 17.4964 6.57761 17.4726 6.55627C17.4487 6.53493 17.434 6.50528 17.4314 6.47341C17.429 6.44424 17.4369 6.41525 17.4536 6.39142L17.4776 6.36454L18.5416 5.3006L18.5416 5.30055C18.5532 5.28894 18.567 5.27973 18.5822 5.27345C18.5973 5.26716 18.6136 5.26393 18.63 5.26393C18.6464 5.26393 18.6627 5.26716 18.6778 5.27345C18.693 5.27973 18.7068 5.28894 18.7184 5.30055L19.072 4.94705L18.7184 5.30056C18.7402 5.32233 18.7531 5.35137 18.7548 5.38211C18.7563 5.41016 18.7484 5.43782 18.7324 5.46069L18.7084 5.48756L17.6444 6.55149ZM12 2.49805C12.0619 2.49805 12.1134 2.54297 12.1234 2.6013L12.125 2.63476V4.14064C12.1247 4.17239 12.1124 4.20285 12.0904 4.22584C12.0684 4.24896 12.0383 4.26276 12.0064 4.26438C11.9744 4.26601 11.9431 4.25534 11.9188 4.23458C11.8965 4.21552 11.8817 4.18928 11.8768 4.16051L11.875 4.12828V2.62305C11.875 2.55419 11.9311 2.49805 12 2.49805ZM10.5772 19.5091C10.5923 19.5028 10.6086 19.4995 10.625 19.4995H13.375C13.4082 19.4995 13.4399 19.5127 13.4634 19.5362C13.4868 19.5596 13.5 19.5914 13.5 19.6245C13.5 19.6577 13.4868 19.6895 13.4634 19.7129C13.4399 19.7364 13.4082 19.7495 13.375 19.7495H10.625C10.6086 19.7495 10.5923 19.7463 10.5772 19.74C10.562 19.7337 10.5482 19.7245 10.5366 19.7129C10.525 19.7013 10.5158 19.6875 10.5095 19.6724C10.5032 19.6572 10.5 19.641 10.5 19.6245C10.5 19.6081 10.5032 19.5919 10.5095 19.5767C10.5158 19.5615 10.525 19.5478 10.5366 19.5362C10.5482 19.5246 10.562 19.5153 10.5772 19.5091ZM6.5 16.6245C6.5 16.5557 6.55614 16.4995 6.625 16.4995H17.375C17.4082 16.4995 17.4399 16.5127 17.4634 16.5362C17.4868 16.5596 17.5 16.5914 17.5 16.6245C17.5 16.6577 17.4868 16.6895 17.4634 16.7129C17.4399 16.7364 17.4082 16.7495 17.375 16.7495H6.625C6.55614 16.7495 6.5 16.6934 6.5 16.6245Z" stroke="#0073DE" stroke-opacity="0.5"/>
</svg>
