<svg width="24" height="24" viewBox="0 0 24 24" fill="none" xmlns="http://www.w3.org/2000/svg">
<path d="M17.6789 6.11852L17.6725 6.12453C17.6584 6.13761 17.6472 6.15338 17.6394 6.1709C17.6316 6.18843 17.6274 6.20734 17.627 6.22653C17.6267 6.24571 17.6302 6.26476 17.6374 6.28255C17.6446 6.30034 17.6553 6.31649 17.6689 6.33006C17.6824 6.34363 17.6986 6.35432 17.7164 6.36151C17.7342 6.36869 17.7532 6.37222 17.7724 6.37188C17.7916 6.37154 17.8105 6.36734 17.828 6.35954C17.8455 6.35173 17.8613 6.34047 17.8744 6.32643L17.8804 6.31998L17.8866 6.31374L19.1721 5.02825C19.1989 5.00146 19.2139 4.96515 19.2139 4.9273C19.2139 4.88951 19.1989 4.85327 19.1723 4.8265C19.1455 4.79993 19.1093 4.785 19.0716 4.785C19.0339 4.785 18.9977 4.79995 18.9709 4.82656L17.6789 6.11852ZM17.6789 6.11852L17.6852 6.11228L18.9707 4.82678L17.6789 6.11852ZM12.0002 2.21387C12.0381 2.21387 12.0744 2.22892 12.1012 2.25571C12.128 2.2825 12.143 2.31884 12.143 2.35672V3.63901C12.143 3.6769 12.128 3.71323 12.1012 3.74003C12.0744 3.76682 12.0381 3.78187 12.0002 3.78187C11.9623 3.78187 11.926 3.76682 11.8992 3.74003C11.8724 3.71324 11.8573 3.6769 11.8573 3.63901V2.35672C11.8573 2.31884 11.8724 2.2825 11.8992 2.25571C11.926 2.22892 11.9623 2.21387 12.0002 2.21387ZM16.643 11.9996C16.643 12.6093 16.523 13.213 16.2896 13.7763C16.0563 14.3396 15.7143 14.8514 15.2832 15.2826C14.8521 15.7137 14.3402 16.0557 13.7769 16.289C13.2136 16.5223 12.6099 16.6424 12.0002 16.6424C11.3905 16.6424 10.7867 16.5223 10.2234 16.289C9.66015 16.0557 9.14832 15.7137 8.71719 15.2826C8.28606 14.8514 7.94407 14.3396 7.71075 13.7763C7.47742 13.213 7.35733 12.6093 7.35733 11.9996C7.35733 10.7682 7.84649 9.58729 8.71719 8.71659C9.5879 7.84588 10.7688 7.35672 12.0002 7.35672C13.2316 7.35672 14.4125 7.84588 15.2832 8.71659C16.1539 9.58729 16.643 10.7682 16.643 11.9996ZM21.7441 12.1006C21.7173 12.1274 21.6809 12.1424 21.643 12.1424H20.3608C20.3229 12.1424 20.2865 12.1274 20.2597 12.1006C20.233 12.0738 20.2179 12.0375 20.2179 11.9996C20.2179 11.9617 20.233 11.9254 20.2597 11.8986C20.2865 11.8718 20.3229 11.8567 20.3608 11.8567H21.643C21.6809 11.8567 21.7173 11.8718 21.7441 11.8986C21.7709 11.9254 21.7859 11.9617 21.7859 11.9996C21.7859 12.0375 21.7709 12.0738 21.7441 12.1006ZM12.0002 20.2173C12.0381 20.2173 12.0744 20.2323 12.1012 20.2591C12.128 20.2859 12.143 20.3223 12.143 20.3602V21.6424C12.143 21.6803 12.128 21.7167 12.1012 21.7435C12.0744 21.7702 12.0381 21.7853 12.0002 21.7853C11.9623 21.7853 11.926 21.7702 11.8992 21.7435C11.8724 21.7167 11.8573 21.6803 11.8573 21.6424V20.3602C11.8573 20.3223 11.8724 20.2859 11.8992 20.2591C11.926 20.2323 11.9623 20.2173 12.0002 20.2173ZM3.74406 12.1006C3.71727 12.1274 3.68093 12.1424 3.64305 12.1424H2.35819C2.3203 12.1424 2.28397 12.1274 2.25717 12.1006C2.23038 12.0738 2.21533 12.0375 2.21533 11.9996C2.21533 11.9617 2.23038 11.9254 2.25717 11.8986C2.28397 11.8718 2.3203 11.8567 2.35819 11.8567H3.64305C3.68093 11.8567 3.71727 11.8718 3.74406 11.8986C3.77085 11.9254 3.7859 11.9617 3.7859 11.9996C3.7859 12.0375 3.77085 12.0738 3.74406 12.1006ZM4.82803 4.82656C4.85479 4.79995 4.89101 4.785 4.92876 4.785C4.96657 4.785 5.00283 4.79999 5.02961 4.82668C5.02964 4.82671 5.02968 4.82675 5.02971 4.82678L6.30673 6.1038C6.32955 6.13032 6.34189 6.16437 6.34127 6.19949C6.34062 6.23651 6.32563 6.27182 6.29945 6.29799C6.27328 6.32416 6.23797 6.33916 6.20096 6.33981C6.16584 6.34043 6.13179 6.32809 6.10526 6.30526L4.82825 5.02825C4.82821 5.02821 4.82818 5.02818 4.82814 5.02814C4.80146 5.00137 4.78647 4.9651 4.78647 4.9273C4.78647 4.88954 4.80141 4.85333 4.82803 4.82656ZM6.30673 17.8936L5.03798 19.1624C5.01145 19.1852 4.9774 19.1976 4.94228 19.197C4.90527 19.1963 4.86995 19.1813 4.84378 19.1551C4.81761 19.129 4.80261 19.0936 4.80196 19.0566C4.80134 19.0215 4.81368 18.9875 4.8365 18.9609L6.10526 17.6922C6.13179 17.6694 6.16584 17.657 6.20096 17.6576C6.23797 17.6583 6.27328 17.6733 6.29945 17.6995C6.32563 17.7256 6.34062 17.7609 6.34127 17.798C6.34189 17.8331 6.32956 17.8671 6.30673 17.8936ZM19.0581 19.1978C19.023 19.1984 18.9889 19.1861 18.9624 19.1633L17.6936 17.8945C17.6708 17.868 17.6585 17.8339 17.6591 17.7988C17.6598 17.7618 17.6748 17.7265 17.7009 17.7003C17.7271 17.6741 17.7624 17.6592 17.7994 17.6585C17.8345 17.6579 17.8686 17.6702 17.8951 17.693L19.1639 18.9618C19.1867 18.9883 19.199 19.0224 19.1984 19.0575C19.1978 19.0945 19.1828 19.1298 19.1566 19.156C19.1304 19.1822 19.0951 19.1972 19.0581 19.1978Z" stroke="#0073DE"/>
</svg>
