<svg width="24" height="24" viewBox="0 0 24 24" fill="none" xmlns="http://www.w3.org/2000/svg">
<path d="M18.7481 9.49358C19.5896 9.50069 20.3955 9.83382 20.9965 10.4229C21.5974 11.012 21.9465 11.8112 21.9703 12.6524C21.9942 13.4936 21.6909 14.3112 21.1243 14.9334C20.5576 15.5556 19.7718 15.9338 18.9321 15.9886L18.7321 15.9936L18.6161 16.0006H17.8291C17.9391 16.3106 17.9991 16.6446 17.9991 16.9936C17.9991 18.6576 16.7371 19.9996 15.0731 19.9996C13.7731 19.9996 12.8381 19.3716 12.3851 18.3726C12.2791 18.1402 12.2661 17.876 12.3487 17.6343C12.4312 17.3926 12.6032 17.1917 12.8292 17.0727C13.0552 16.9538 13.3182 16.9258 13.5642 16.9946C13.8102 17.0634 14.0205 17.2236 14.1521 17.4426L14.2501 17.6316C14.3901 17.8736 14.6231 17.9996 15.0731 17.9996C15.6031 17.9996 15.9981 17.5796 15.9981 16.9936C15.9981 16.4826 15.6051 16.0576 15.0941 16.0006H3.00009C2.74366 16.0026 2.49625 15.906 2.30898 15.7308C2.12172 15.5556 2.00893 15.3152 1.99391 15.0592C1.97888 14.8032 2.06279 14.5512 2.22827 14.3553C2.39376 14.1594 2.62818 14.0346 2.88309 14.0066L3.00009 14.0016H14.8591L14.9761 13.9946C15.0391 13.9946 15.1021 13.9966 15.1651 14.0006L18.6271 14.0016L18.6871 13.9966L18.7471 13.9946L18.8761 13.9886C19.0923 13.9657 19.2989 13.8868 19.4753 13.7597C19.6517 13.6326 19.7919 13.4617 19.8821 13.2638C19.9723 13.066 20.0093 12.848 19.9894 12.6314C19.9696 12.4149 19.8936 12.2073 19.769 12.0291C19.6443 11.8509 19.4754 11.7083 19.2788 11.6154C19.0822 11.5225 18.8648 11.4824 18.648 11.4993C18.4312 11.5161 18.2225 11.5891 18.0426 11.7113C17.8627 11.8334 17.7178 12.0003 17.6221 12.1956L17.5251 12.4216C17.4087 12.6471 17.2109 12.8199 16.9719 12.905C16.7328 12.9901 16.4703 12.9812 16.2376 12.88C16.0049 12.7787 15.8194 12.5928 15.7186 12.3599C15.6179 12.127 15.6095 11.8645 15.6951 11.6256C15.9249 11.0008 16.3409 10.4616 16.8868 10.0807C17.4327 9.69981 18.0824 9.49558 18.7481 9.49558V9.49358ZM11.7501 11.9996H3.00009C2.74366 12.0016 2.49625 11.905 2.30898 11.7298C2.12172 11.5546 2.00893 11.3142 1.99391 11.0582C1.97888 10.8022 2.06279 10.5502 2.22827 10.3543C2.39376 10.1584 2.62818 10.0336 2.88309 10.0056L3.00009 9.99958H11.7501C12.1951 9.99958 12.6301 9.86762 13.0001 9.62039C13.3701 9.37315 13.6585 9.02175 13.8288 8.61062C13.9991 8.19948 14.0437 7.74708 13.9569 7.31063C13.87 6.87417 13.6558 6.47326 13.3411 6.15859C13.0264 5.84392 12.6255 5.62963 12.189 5.54281C11.7526 5.456 11.3002 5.50055 10.8891 5.67085C10.4779 5.84115 10.1265 6.12954 9.87929 6.49955C9.63205 6.86956 9.50009 7.30457 9.50009 7.74958C9.50009 8.0148 9.39474 8.26915 9.2072 8.45669C9.01966 8.64422 8.76531 8.74958 8.50009 8.74958C8.23488 8.74958 7.98052 8.64422 7.79299 8.45669C7.60545 8.26915 7.50009 8.0148 7.50009 7.74958C7.49998 6.91895 7.74328 6.1065 8.19991 5.41265C8.65653 4.71879 9.30647 4.17395 10.0694 3.84547C10.8323 3.51699 11.6748 3.41927 12.4926 3.56439C13.3105 3.70951 14.0679 4.0911 14.6712 4.66201C15.2745 5.23291 15.6973 5.9681 15.8874 6.7767C16.0774 7.58529 16.0263 8.43185 15.7405 9.21174C15.4546 9.99162 14.9464 10.6706 14.2788 11.1649C13.6112 11.6591 12.8135 11.9468 11.9841 11.9926L11.7501 11.9996H3.00009H11.7501Z" fill="#0073DE"/>
</svg>
